<svg viewBox="0 0 89 20" fill="none" xmlns="http://www.w3.org/2000/svg">
<path d="M6.66602 9.8877C6.93422 9.88778 7.1823 10.0304 7.31641 10.2627L9.28809 13.6777C9.42208 13.91 9.42216 14.1965 9.28809 14.4287L7.31641 17.8438C7.18229 18.076 6.93419 18.2187 6.66602 18.2188H2.72266C2.45445 18.2188 2.20644 18.076 2.07227 17.8438L0.100586 14.4287C-0.0335405 14.1964 -0.033502 13.9101 0.100586 13.6777L2.07227 10.2627C2.20641 10.0304 2.45437 9.8877 2.72266 9.8877H6.66602ZM21.9355 9.8877C22.2037 9.88779 22.4518 10.0304 22.5859 10.2627L24.5576 13.6777C24.6916 13.91 24.6917 14.1965 24.5576 14.4287L22.5859 17.8438C22.4518 18.076 22.2037 18.2187 21.9355 18.2188H17.9922C17.724 18.2188 17.476 18.076 17.3418 17.8438L15.3701 14.4287C15.236 14.1964 15.236 13.9101 15.3701 13.6777L17.3418 10.2627C17.4759 10.0304 17.7239 9.8877 17.9922 9.8877H21.9355ZM14.3008 5.50684C14.569 5.5069 14.817 5.6496 14.9512 5.88184L16.9229 9.29688C17.057 9.52915 17.0569 9.81555 16.9229 10.0479L14.9512 13.4629C14.8171 13.6952 14.569 13.8388 14.3008 13.8389H10.3574C10.0891 13.8389 9.84118 13.6952 9.70703 13.4629L7.73535 10.0479C7.60128 9.81553 7.60123 9.52918 7.73535 9.29688L9.70703 5.88184C9.8412 5.6496 10.0892 5.50684 10.3574 5.50684H14.3008ZM6.66602 1.00098C6.93415 1.00106 7.18228 1.1438 7.31641 1.37598L9.28809 4.79102C9.42217 5.02325 9.42204 5.30971 9.28809 5.54199L7.31641 8.95703C7.1823 9.18931 6.93422 9.33292 6.66602 9.33301H2.72266C2.45436 9.33301 2.20641 9.18938 2.07227 8.95703L0.100586 5.54199C-0.0334461 5.30968 -0.0335219 5.0233 0.100586 4.79102L2.07227 1.37598C2.20645 1.14381 2.45448 1.00098 2.72266 1.00098H6.66602ZM21.9355 1.00098C22.2037 1.00107 22.4518 1.1438 22.5859 1.37598L24.5576 4.79102C24.6917 5.02325 24.6916 5.30971 24.5576 5.54199L22.5859 8.95703C22.4518 9.1893 22.2037 9.33292 21.9355 9.33301H17.9922C17.7239 9.33301 17.4759 9.18938 17.3418 8.95703L15.3701 5.54199C15.2361 5.30968 15.236 5.0233 15.3701 4.79102L17.3418 1.37598C17.476 1.14382 17.724 1.00098 17.9922 1.00098H21.9355Z" fill="currentColor"/>
<path d="M31.5438 15.6231L31.4381 14.9361C32.0605 14.8304 32.4362 14.713 32.5654 14.5838C32.7063 14.4547 32.7768 14.2081 32.7768 13.8441V5.19573C32.7768 4.83172 32.7063 4.58512 32.5654 4.45596C32.4362 4.32679 32.0605 4.20936 31.4381 4.10368L31.5438 3.41675H35.8592L35.9296 4.10368L34.8376 4.31505C34.6027 4.36202 34.4853 4.51467 34.4853 4.773V8.80654H40.3506V5.19573C40.3506 4.83172 40.2802 4.58512 40.1393 4.45596C40.0101 4.32679 39.6344 4.20936 39.012 4.10368L39.1177 3.41675H43.433L43.5035 4.10368L42.4115 4.31505C42.1766 4.36202 42.0592 4.51467 42.0592 4.773V14.2668C42.0592 14.5251 42.1766 14.6778 42.4115 14.7248L43.5035 14.9361L43.433 15.6231H39.1177L39.012 14.9361C39.6344 14.8304 40.0101 14.713 40.1393 14.5838C40.2802 14.4547 40.3506 14.2081 40.3506 13.8441V9.86337H34.4853V14.2668C34.4853 14.5251 34.6027 14.6778 34.8376 14.7248L35.9296 14.9361L35.8592 15.6231H31.5438Z" fill="currentColor"/>
<path d="M47.9704 15.7816C46.7022 15.7816 45.7276 15.4058 45.0465 14.6543C44.3654 13.9028 44.0249 12.8518 44.0249 11.5014C44.0249 10.1511 44.383 9.07075 45.0993 8.26052C45.8274 7.43855 46.8255 7.02756 48.0937 7.02756C49.3736 7.02756 50.3541 7.40919 51.0352 8.17245C51.7162 8.92397 52.0567 9.97492 52.0567 11.3253C52.0567 12.6757 51.6927 13.756 50.9647 14.5662C50.2484 15.3765 49.2503 15.7816 47.9704 15.7816ZM45.7334 11.2725C45.7334 12.3175 45.9448 13.1747 46.3675 13.8441C46.7902 14.5134 47.3656 14.848 48.0937 14.848C48.8217 14.848 49.3384 14.6719 49.6437 14.3196C49.855 14.0848 50.0253 13.7149 50.1545 13.21C50.2836 12.6933 50.3482 12.1355 50.3482 11.5367C50.3482 10.4916 50.1369 9.63439 49.7141 8.96507C49.2914 8.29575 48.716 7.96109 47.988 7.96109C47.2599 7.96109 46.7433 8.13722 46.438 8.4895C46.2266 8.72435 46.0563 9.10011 45.9272 9.61677C45.798 10.1217 45.7334 10.6736 45.7334 11.2725Z" fill="currentColor"/>
<path d="M52.7354 15.6231L52.6297 14.9361C53.2051 14.8187 53.5515 14.7013 53.669 14.5838C53.7981 14.4547 53.8627 14.2374 53.8627 13.9321V8.85939C53.8627 8.55408 53.7864 8.34272 53.6337 8.22529C53.4928 8.09612 53.1229 7.97283 52.5241 7.8554L52.6297 7.29176L54.9019 7.06279C54.9841 7.06279 55.0663 7.22718 55.1485 7.55597C55.2424 7.88476 55.2894 8.17245 55.2894 8.41904V8.52472L55.4303 8.57757L55.6417 8.33097C56.3815 7.46203 57.2856 7.02756 58.3542 7.02756C59.1057 7.02756 59.6987 7.25654 60.1332 7.71449C60.5677 8.16071 60.7849 8.78893 60.7849 9.59916V14.3549C60.7849 14.4958 60.8143 14.5897 60.873 14.6367C60.9434 14.6719 61.0315 14.7013 61.1372 14.7248L62.0002 14.9361L61.9298 15.6231H58.1605L58.0548 14.9361C58.5832 14.8304 58.9061 14.713 59.0235 14.5838C59.1409 14.4547 59.1997 14.2374 59.1997 13.9321V10.1276C59.1997 9.57568 59.0998 9.13533 58.9002 8.80654C58.7006 8.46601 58.3072 8.29575 57.7201 8.29575C57.1447 8.29575 56.5165 8.52472 55.8354 8.98268C55.7298 9.05314 55.6534 9.10598 55.6065 9.1412C55.5008 9.25863 55.4479 9.47586 55.4479 9.79291V14.3372C55.4479 14.4664 55.4656 14.5545 55.5008 14.6015C55.5477 14.6484 55.6476 14.6895 55.8002 14.7248L56.5752 14.9361L56.5048 15.6231H52.7354Z" fill="currentColor"/>
<path d="M66.0286 15.7816C64.8426 15.7816 63.9208 15.3765 63.2632 14.5662C62.6174 13.756 62.2944 12.7344 62.2944 11.5014C62.2944 10.2567 62.6702 9.19992 63.4217 8.33097C64.1732 7.46203 65.1655 7.02756 66.3984 7.02756C68.3947 7.02756 69.4397 8.25465 69.5337 10.7088L69.0757 11.0435L63.9677 11.3253C63.9677 13.4977 64.8954 14.5838 66.7507 14.5838C67.5609 14.5838 68.3536 14.3842 69.1286 13.985L69.4985 14.5662C69.111 14.8833 68.606 15.1651 67.9837 15.4117C67.3613 15.6583 66.7096 15.7816 66.0286 15.7816ZM64.0206 10.5151L67.6666 10.198C67.7841 10.1863 67.8428 10.0747 67.8428 9.86337C67.8428 9.3467 67.7019 8.90048 67.42 8.52472C67.15 8.14897 66.6861 7.96109 66.0286 7.96109C65.371 7.96109 64.8895 8.18419 64.5842 8.63041C64.2907 9.06488 64.1028 9.6931 64.0206 10.5151Z" fill="currentColor"/>
<path d="M69.9131 17.6839C70.1949 17.7191 70.5824 17.7367 71.0756 17.7367C71.5805 17.7367 71.9797 17.6721 72.2733 17.5429C72.5669 17.4255 72.9191 16.7856 73.3301 15.6231L70.4062 8.61279C70.3123 8.38969 70.2242 8.24878 70.142 8.19006C70.0716 8.13135 69.8485 8.0609 69.4727 7.9787L69.5784 7.29176H73.2068L73.2773 7.9787L72.2028 8.24291C72.1206 8.25465 72.0796 8.30162 72.0796 8.38381C72.0796 8.39556 72.103 8.47188 72.15 8.61279L73.9466 13.3157C74.0053 13.48 74.0347 13.6621 74.0347 13.8617H74.1756L76.0426 9.01791C76.1131 8.83003 76.1483 8.67738 76.1483 8.55995C76.1483 8.43078 76.0603 8.3251 75.8841 8.24291C75.7197 8.16071 75.4203 8.07264 74.9858 7.9787L75.0915 7.29176H78.2267L78.2972 7.9787C77.7805 8.09612 77.5046 8.19594 77.4693 8.27813L74.6864 15.1827C74.4515 15.7698 74.2637 16.216 74.1227 16.5213C73.9818 16.8384 73.7881 17.1907 73.5415 17.5782C73.2949 17.9657 73.0366 18.2651 72.7665 18.4765C72.0972 18.9814 71.2869 19.3161 70.3358 19.4805C70.0305 19.1751 69.8778 18.6937 69.8778 18.0361C69.8778 17.9657 69.8896 17.8482 69.9131 17.6839Z" fill="currentColor"/>
<path d="M82.9648 15.6231H77.9097V14.9361C78.6964 14.8187 79.1485 14.6367 79.2659 14.3901C79.3247 14.2962 79.3775 14.1141 79.4245 13.8441L80.904 5.19573C80.9392 5.03134 80.9569 4.87869 80.9569 4.73778C80.9569 4.58512 80.8747 4.4677 80.7103 4.3855C80.5576 4.29156 80.2406 4.19762 79.7591 4.10368L79.8648 3.41675H84.7086C85.7889 3.41675 86.6285 3.65747 87.2273 4.13891C87.8379 4.62035 88.1433 5.26032 88.1433 6.0588C88.1433 6.84555 87.879 7.53249 87.3506 8.11961C86.8222 8.69499 86.2762 9.07075 85.7126 9.24689V9.37018C86.3819 9.54632 86.9103 9.86337 87.2978 10.3213C87.6853 10.7675 87.8791 11.3488 87.8791 12.0651C87.8791 12.981 87.5326 13.7854 86.8398 14.4782C86.4758 14.8304 85.9592 15.1123 85.2898 15.3236C84.6323 15.5232 83.8573 15.6231 82.9648 15.6231ZM81.9608 8.77132H83.2995C84.2154 8.77132 84.9258 8.56582 85.4307 8.15484C85.9474 7.74385 86.2057 7.12737 86.2057 6.3054C86.2057 5.00198 85.4484 4.35027 83.9336 4.35027H82.7006L81.9608 8.77132ZM83.5108 9.75768H81.8023L81.133 13.9145C81.0978 14.1024 81.086 14.2433 81.0978 14.3372C81.1095 14.4194 81.1682 14.484 81.2739 14.531C81.5557 14.6719 82.0137 14.7424 82.6478 14.7424C84.8436 14.7424 85.9415 13.8617 85.9415 12.1003C85.9415 11.1492 85.6597 10.5092 85.0961 10.1804C84.6146 9.89859 84.0862 9.75768 83.5108 9.75768Z" fill="currentColor"/>
</svg>
