<svg viewBox="0 0 24 24" fill="none" xmlns="http://www.w3.org/2000/svg">
<path d="M16.4631 8.846L15.3731 15.825C15.358 15.9212 15.3193 16.0122 15.2605 16.0898C15.2016 16.1673 15.1244 16.2291 15.0357 16.2694C14.9471 16.3098 14.8498 16.3275 14.7527 16.3209C14.6555 16.3144 14.5615 16.2838 14.4791 16.232L10.8291 13.945C10.7532 13.8975 10.6892 13.8334 10.6418 13.7574C10.5945 13.6815 10.5652 13.5957 10.556 13.5067C10.5468 13.4177 10.5581 13.3278 10.589 13.2438C10.6198 13.1598 10.6694 13.0839 10.7341 13.022L13.7641 10.118C13.7981 10.086 13.7581 10.033 13.7181 10.057L9.32605 12.685C9.065 12.842 8.75499 12.8965 8.45605 12.838L6.86605 12.531C6.29205 12.42 6.21305 11.632 6.75205 11.409L15.2541 7.894C15.3989 7.83374 15.5572 7.81319 15.7126 7.83449C15.868 7.85579 16.0149 7.91815 16.1382 8.01515C16.2615 8.11215 16.3567 8.24028 16.414 8.38632C16.4713 8.53237 16.4885 8.69105 16.4641 8.846" fill="currentColor"/>
<path fill-rule="evenodd" clip-rule="evenodd" d="M12.0001 1.70599C6.31505 1.70599 1.70605 6.31499 1.70605 12C1.70605 17.685 6.31505 22.294 12.0001 22.294C17.6851 22.294 22.2941 17.685 22.2941 12C22.2941 6.31499 17.6851 1.70599 12.0001 1.70599ZM3.47005 12C3.47005 10.8798 3.69069 9.77061 4.11936 8.7357C4.54803 7.7008 5.17635 6.76046 5.96843 5.96837C6.76052 5.17629 7.70086 4.54797 8.73576 4.1193C9.77067 3.69063 10.8799 3.46999 12.0001 3.46999C13.1202 3.46999 14.2294 3.69063 15.2643 4.1193C16.2993 4.54797 17.2396 5.17629 18.0317 5.96837C18.8238 6.76046 19.4521 7.7008 19.8807 8.7357C20.3094 9.77061 20.5301 10.8798 20.5301 12C20.5301 14.2623 19.6314 16.4319 18.0317 18.0316C16.432 19.6313 14.2624 20.53 12.0001 20.53C9.73776 20.53 7.56812 19.6313 5.96843 18.0316C4.36875 16.4319 3.47005 14.2623 3.47005 12Z" fill="currentColor"/>
</svg>
